<svg xmlns="http://www.w3.org/2000/svg" width="144" height="148" viewBox="0 0 144 148">
    <defs>
        <style>
            .cls-2{fill:#7f8790}.cls-3{fill:#fff}.cls-4{fill:#644e9d}.cls-5{fill:#9379df}.cls-8{fill:#321817}
        </style>
    </defs>
    <g id="Logo" transform="translate(-101 -141)">
        <path id="사각형_92" fill="none" d="M0 0H144V148H0z" transform="translate(101 141)"/>
        <g id="Logo-2" transform="translate(-53.003 -1220.743)">
            <g id="그룹_366" transform="translate(154.003 1452.402)">
                <g id="그룹_192" transform="translate(3.127 3.127)">
                    <path id="패스_2320" d="M162.1 419.782q-2.021.476-4.04.772t-4.189.505q-2.169.209-4.6.3t-5.347.089h-3.209v-30.125h19.429v6.177h-12.061v17.765a57.631 57.631 0 0 0 6.536-.386 53.9 53.9 0 0 0 6.773-1.218zm9.566 15.092h-7.189v-46.938h7.189V404.1h4.278v-16.7h7.256v49.671h-7.249v-26.676h-4.281z" class="cls-2" transform="translate(-140.715 -387.401)"/>
                    <path id="패스_2321" d="M306.447 398.215a8.815 8.815 0 0 1 .862-3.832 8.668 8.668 0 0 1 2.525-3.119 12.83 12.83 0 0 1 4.129-2.08 18.789 18.789 0 0 1 5.615-.772 19.016 19.016 0 0 1 5.674.772 12.846 12.846 0 0 1 4.13 2.08 8.685 8.685 0 0 1 2.525 3.119 9.023 9.023 0 0 1-1.515 9.952 12.005 12.005 0 0 1-7.011 3.446v3.208q2.971-.178 5.853-.446t5.734-.683l.535 5.941q-3.565.535-7.546.891t-8.051.564q-4.07.209-8.14.267t-7.873.059V411.4q3.03.06 6 .059t6-.119v-3.56a12.257 12.257 0 0 1-7.041-3.416 8.716 8.716 0 0 1-2.405-6.149zm7.486 0a3.271 3.271 0 0 0 1.575 2.881 7.252 7.252 0 0 0 4.07 1.04 7.375 7.375 0 0 0 4.129-1.04 3.273 3.273 0 0 0 1.575-2.881 3.206 3.206 0 0 0-1.575-2.852 7.548 7.548 0 0 0-4.129-1.01 7.422 7.422 0 0 0-4.07 1.01 3.2 3.2 0 0 0-1.575 2.852zm30.361 31.252a8.92 8.92 0 0 1-.951 4.04 9.933 9.933 0 0 1-2.733 3.327 13.126 13.126 0 0 1-4.4 2.228 20.481 20.481 0 0 1-6 .8 20.78 20.78 0 0 1-6.031-.8 13.435 13.435 0 0 1-4.456-2.228 9.474 9.474 0 0 1-2.733-3.327 9.145 9.145 0 0 1-.921-4.04 9.279 9.279 0 0 1 .921-4.1 9.474 9.474 0 0 1 2.733-3.327 13.865 13.865 0 0 1 4.456-2.258 22.281 22.281 0 0 1 12.061 0 13.515 13.515 0 0 1 4.427 2.258 9.622 9.622 0 0 1 2.7 3.327 9.291 9.291 0 0 1 .927 4.1zm-7.427 0a3.844 3.844 0 0 0-1.663-3.208 10.666 10.666 0 0 0-10.012 0 3.862 3.862 0 0 0-1.634 3.208 3.706 3.706 0 0 0 1.634 3.03 10.665 10.665 0 0 0 10.012 0 3.691 3.691 0 0 0 1.663-3.03zm8.259-23.588v13.012h-7.605V387.4h7.605v12h7.249v6.476z" class="cls-2" transform="translate(-256.241 -387.401)"/>
                    <path id="패스_2322" d="M493.07 388.946v17.29q2.019 0 4.634-.089t5.407-.267q2.792-.178 5.526-.475t4.991-.772l.713 6.12q-2.437.476-5.555.8t-6.536.535q-3.417.209-6.951.3t-6.8.089h-2.911v-23.531zm1.842 49.374V417.7h30.837v20.62zm23.35-14.676H502.4v8.675h15.864zm-.119-36.243h7.605v27.569h-7.605z" class="cls-2" transform="translate(-384.876 -387.401)"/>
                </g>
                <path id="패스_2323" d="M133.134 423.372l-3.127-3.127 5.743-26.795 13.686-3.329 3.127 3.127v6.179H140.5v14.984l10.182-1.95 4.385 4.385-21.935 6.525" class="cls-2" transform="translate(-130.007 -386.2)"/>
                <path id="패스_2324" d="M221.7 380.372l-.116 13.754 2.083-.05 6.438-17.383 3.127 3.127-2.126 47.235-5.123 2.435-3.127-3.127.315-26.485-1.466-.6v28.009h-7.189l-3.127-3.127 7.17-46.934z" class="cls-2" transform="translate(-187.626 -376.693)"/>
                <path id="패스_2325" d="M296.311 410l-3.127-3.127 12-6.239.113-1.42-4.034-2.513-3.12-3.049 5.9-.522 13.092-.893 1.934-11.307 3.422 3.372 1.719 6.249-7.472 8.794.066.727 4.034.463 3.42-1.388 3.127 3.127 7.033-25.586 3.127 3.127v9.085l4.121-.207 3.127 3.127-3.59 4.618-6.348 1.653L333 409.6l-3.043 1.733-2.042-3.112-6.024-.87z" class="cls-2" transform="translate(-245.533 -376.693)"/>
                <path id="패스_2326" d="M339.662 510.27l4.232 4.5 1.124-8.927 7.6-4.034 6.216-.463 8.067.529-3.438-3.438h-15.337l-8.927 8.861z" class="cls-2" transform="translate(-278.111 -462.883)"/>
                <path id="패스_2327" d="M482.362 381.983l3.127 3.127v14.745l15.13-.793 2.3-1.393 3.127 3.127-2.056 4.663-25.99 3.179-3.127-3.127z" class="cls-2" transform="translate(-374.167 -380.438)"/>
                <path id="패스_2328" d="M593.978 376.693l3.127 3.127-3.266 25.663-4.339 1.906-3.127-3.127z" class="cls-2" transform="translate(-453.105 -376.693)"/>
                <path id="패스_2329" d="M540.782 483.586l-3.127-3.127-4.949 10.241-2.579 6.745-23.308 3.631 3.127 3.127 26.43-3.386z" class="cls-2" transform="translate(-396.783 -450.157)"/>
                <g id="그룹_196">
                    <g id="그룹_193">
                        <path id="패스_2330" d="M151.4 409.074q-2.021.476-4.04.772t-4.189.5q-2.17.209-4.6.3t-5.347.089h-3.208v-30.121h19.429v6.179h-12.071v17.765a57.565 57.565 0 0 0 6.536-.386 53.853 53.853 0 0 0 6.773-1.218zm9.566 15.091h-7.189v-46.937h7.189v16.161h4.278v-16.7h7.249v49.671h-7.253v-26.673h-4.278z" class="cls-3" transform="translate(-130.007 -376.693)"/>
                        <path id="패스_2331" d="M172.05 377.131v48.795h-6.372v-26.677h-5.154v24.479h-6.313v-46.062h6.313v16.161h5.154v-16.7h6.372M149 381.052v5.3h-12.064V405h.438a58.356 58.356 0 0 0 6.585-.389 54.46 54.46 0 0 0 6.346-1.112l.61 5.24c-1.2.273-2.42.5-3.624.678-1.327.2-2.729.365-4.167.5-1.422.137-2.962.236-4.579.3s-3.4.088-5.331.088h-2.77v-29.253H149m23.491-4.359h-7.251v16.7h-4.278v-16.165h-7.189v46.938h7.189v-24.479h4.278v26.677h7.249v-49.671zm-23.053 3.921h-19.431v30.123h3.208q2.91 0 5.347-.089t4.6-.3q2.168-.208 4.189-.5t4.04-.772l-.713-6.12a53.853 53.853 0 0 1-6.773 1.218 57.565 57.565 0 0 1-6.536.386v-17.767h12.061v-6.179z" transform="translate(-130.007 -376.693)"/>
                    </g>
                    <g id="그룹_194" transform="translate(47.651)">
                        <path id="패스_2332" d="M295.738 387.506a8.819 8.819 0 0 1 .861-3.832 8.666 8.666 0 0 1 2.525-3.119 12.831 12.831 0 0 1 4.129-2.08 18.791 18.791 0 0 1 5.615-.772 19.02 19.02 0 0 1 5.674.772 12.858 12.858 0 0 1 4.13 2.08 8.686 8.686 0 0 1 2.525 3.119 9.025 9.025 0 0 1-1.515 9.952 12.007 12.007 0 0 1-7.011 3.446v3.208q2.97-.178 5.852-.446t5.734-.683l.535 5.942q-3.565.535-7.545.891t-8.051.564q-4.071.209-8.14.267t-7.873.06V400.7q3.03.06 6 .06t6-.119v-3.565a12.256 12.256 0 0 1-7.041-3.416 8.717 8.717 0 0 1-2.404-6.154zm7.486 0a3.272 3.272 0 0 0 1.575 2.882 7.253 7.253 0 0 0 4.07 1.04 7.375 7.375 0 0 0 4.129-1.04 3.273 3.273 0 0 0 1.575-2.882 3.2 3.2 0 0 0-1.573-2.851 7.549 7.549 0 0 0-4.129-1.01 7.423 7.423 0 0 0-4.07 1.01 3.2 3.2 0 0 0-1.577 2.851zm30.361 31.252a8.925 8.925 0 0 1-.95 4.04 9.937 9.937 0 0 1-2.733 3.327 13.125 13.125 0 0 1-4.4 2.228 20.471 20.471 0 0 1-6 .8 20.769 20.769 0 0 1-6.03-.8 13.432 13.432 0 0 1-4.456-2.228 9.474 9.474 0 0 1-2.733-3.327 9.143 9.143 0 0 1-.921-4.04 9.274 9.274 0 0 1 .921-4.1 9.474 9.474 0 0 1 2.733-3.327 13.862 13.862 0 0 1 4.456-2.258 22.274 22.274 0 0 1 12.061 0 13.51 13.51 0 0 1 4.426 2.258 9.622 9.622 0 0 1 2.7 3.327 9.29 9.29 0 0 1 .926 4.101zm-7.427 0a3.845 3.845 0 0 0-1.663-3.208 10.668 10.668 0 0 0-10.012 0 3.863 3.863 0 0 0-1.634 3.208 3.706 3.706 0 0 0 1.634 3.03 10.667 10.667 0 0 0 10.012 0 3.692 3.692 0 0 0 1.663-3.029zm8.259-23.588v13.012h-7.605v-31.49h7.605v12h7.249v6.476z" class="cls-3" transform="translate(-293.183 -376.693)"/>
                        <path id="패스_2333" d="M333.979 377.131v12h7.249v5.6h-7.249v13.012h-6.729v-30.612h6.729m-25.111 1.01a18.675 18.675 0 0 1 5.543.752 12.473 12.473 0 0 1 3.99 2.006 8.291 8.291 0 0 1 2.4 2.963 8.587 8.587 0 0 1-1.443 9.47 11.642 11.642 0 0 1-6.764 3.309l-.361.065v4.04l.464-.028c1.973-.118 3.947-.269 5.867-.447 1.77-.164 3.55-.373 5.3-.62l.456 5.069c-2.238.327-4.628.605-7.111.828-2.646.237-5.349.426-8.034.563s-5.426.228-8.124.267c-2.528.037-5.024.057-7.428.059v-5.295c1.848.034 3.717.051 5.563.051 1.994 0 4.018-.04 6.018-.119l.421-.017v-4.352l-.361-.065a11.89 11.89 0 0 1-6.8-3.284 8.329 8.329 0 0 1-2.289-5.851 8.424 8.424 0 0 1 .819-3.644 8.275 8.275 0 0 1 2.4-2.963 12.453 12.453 0 0 1 3.99-2.006 18.444 18.444 0 0 1 5.484-.752m0 13.725a7.831 7.831 0 0 0 4.371-1.112 3.7 3.7 0 0 0 1.771-3.247 3.633 3.633 0 0 0-1.776-3.221 8 8 0 0 0-4.366-1.079 7.881 7.881 0 0 0-4.306 1.079 3.632 3.632 0 0 0-1.776 3.221 3.7 3.7 0 0 0 1.771 3.247 7.708 7.708 0 0 0 4.311 1.112M319.5 408.68a19.759 19.759 0 0 1 5.9.812 13.134 13.134 0 0 1 4.285 2.182 9.233 9.233 0 0 1 2.583 3.176 8.9 8.9 0 0 1 .877 3.909 8.527 8.527 0 0 1-.9 3.844 9.542 9.542 0 0 1-2.615 3.181 12.741 12.741 0 0 1-4.251 2.151 20.141 20.141 0 0 1-5.873.783 20.435 20.435 0 0 1-5.9-.783 13.063 13.063 0 0 1-4.313-2.153 9.083 9.083 0 0 1-2.609-3.174 8.752 8.752 0 0 1-.877-3.849 8.885 8.885 0 0 1 .877-3.909 9.08 9.08 0 0 1 2.61-3.174 13.493 13.493 0 0 1 4.317-2.184 19.751 19.751 0 0 1 5.9-.812m0 14.794a8.721 8.721 0 0 0 5.254-1.335 4.122 4.122 0 0 0 1.839-3.38 4.278 4.278 0 0 0-1.839-3.559 11.061 11.061 0 0 0-10.54 0 4.3 4.3 0 0 0-1.806 3.556 4.138 4.138 0 0 0 1.806 3.378 8.7 8.7 0 0 0 5.286 1.337m14.913-46.781h-7.605v31.49h7.605v-13.009h7.249v-6.476h-7.249v-12zm-25.549 1.01a18.791 18.791 0 0 0-5.615.772 12.831 12.831 0 0 0-4.129 2.08 8.666 8.666 0 0 0-2.525 3.119 8.819 8.819 0 0 0-.861 3.832 8.717 8.717 0 0 0 2.406 6.149 12.256 12.256 0 0 0 7.041 3.416v3.565q-3.03.12-6 .119t-6-.06v6.179q3.8 0 7.873-.06t8.14-.267q4.069-.208 8.051-.564t7.545-.891l-.535-5.942q-2.852.417-5.734.683t-5.852.446v-3.208a12.007 12.007 0 0 0 7.011-3.446 9.025 9.025 0 0 0 1.515-9.952 8.686 8.686 0 0 0-2.525-3.119 12.858 12.858 0 0 0-4.13-2.08 19.02 19.02 0 0 0-5.674-.772zm0 13.725a7.252 7.252 0 0 1-4.07-1.04 3.272 3.272 0 0 1-1.575-2.882 3.2 3.2 0 0 1 1.575-2.852 7.422 7.422 0 0 1 4.07-1.01 7.549 7.549 0 0 1 4.129 1.01 3.206 3.206 0 0 1 1.575 2.852 3.274 3.274 0 0 1-1.579 2.885 7.375 7.375 0 0 1-4.129 1.04zm10.625 16.817a20.093 20.093 0 0 0-6.03.832 13.862 13.862 0 0 0-4.456 2.258 9.474 9.474 0 0 0-2.733 3.327 9.274 9.274 0 0 0-.921 4.1 9.143 9.143 0 0 0 .921 4.04 9.474 9.474 0 0 0 2.733 3.327 13.426 13.426 0 0 0 4.456 2.228 20.769 20.769 0 0 0 6.03.8 20.471 20.471 0 0 0 6-.8 13.12 13.12 0 0 0 4.4-2.228 9.937 9.937 0 0 0 2.733-3.327 8.925 8.925 0 0 0 .95-4.04 9.29 9.29 0 0 0-.921-4.1 9.622 9.622 0 0 0-2.7-3.327 13.51 13.51 0 0 0-4.426-2.258 20.1 20.1 0 0 0-6.031-.832zm0 14.794a8.255 8.255 0 0 1-5.021-1.248 3.706 3.706 0 0 1-1.634-3.03 3.863 3.863 0 0 1 1.634-3.208 10.668 10.668 0 0 1 10.012 0 3.845 3.845 0 0 1 1.663 3.208 3.692 3.692 0 0 1-1.663 3.03 8.277 8.277 0 0 1-4.991 1.248z" transform="translate(-293.183 -376.693)"/>
                    </g>
                    <g id="그룹_195" transform="translate(100.708)">
                        <path id="패스_2334" d="M482.362 378.238v17.29q2.019 0 4.634-.089t5.407-.268q2.792-.178 5.526-.475t4.991-.772l.713 6.12q-2.437.477-5.555.8t-6.536.535q-3.417.209-6.951.3t-6.8.089h-2.911v-23.53zm1.842 49.374v-20.617h30.836v20.617zm23.35-14.675H491.69v8.674h15.863zm-.119-36.243h7.605v27.568h-7.605z" class="cls-3" transform="translate(-474.875 -376.693)"/>
                        <path id="패스_2335" d="M514.6 377.131v26.692h-6.729v-26.692h6.729m-32.678 1.545v17.29h.438c1.343 0 2.907-.03 4.649-.089s3.56-.149 5.42-.268 3.737-.28 5.545-.477c1.643-.178 3.175-.408 4.564-.683l.61 5.241c-1.511.281-3.231.523-5.118.72-2.062.216-4.254.4-6.517.533-2.247.137-4.58.237-6.936.3s-4.626.089-6.792.089h-2.473v-22.656h6.61m32.678 28.757v19.741h-29.96v-19.741h29.96m-23.35 14.616h16.739V412.5h-16.737v9.55m23.788-45.356h-7.605v27.568h7.605v-27.569zm-32.678 1.545h-7.487v23.528h2.911q3.267 0 6.8-.089t6.951-.3q3.416-.207 6.536-.535t5.555-.8l-.713-6.12q-2.259.476-4.991.772t-5.526.475q-2.793.178-5.407.268t-4.634.089v-17.29zm32.678 28.757H484.2v20.617h30.84v-20.618zm-23.35 14.616v-8.674h15.863v8.674z" transform="translate(-474.875 -376.693)"/>
                    </g>
                </g>
            </g>
            <g id="그룹_365" transform="translate(172.61 1404.743)">
                <g id="그룹_198" transform="translate(2.663 2.664)">
                    <path id="패스_2336" d="M202.844 243.916V226.81H220.3v17.106zm6.562 3.937h20.825v2.056a7.114 7.114 0 0 1-.984 3.653 12.163 12.163 0 0 1-2.691 3.128q1.838.394 3.653.809t3.741.853l-1.838 4.9-10.019-3.675a32.575 32.575 0 0 1-6.322 2.428 49.467 49.467 0 0 1-6.934 1.378l-1.444-4.812a46.724 46.724 0 0 0 6.344-1.138 35.185 35.185 0 0 0 4.987-1.641 16.253 16.253 0 0 0 3.325-1.815 3.73 3.73 0 0 0 1.444-1.662h-14.087zm5.381-16.668h-6.431v8.269h6.431zm16.45 1.75h5.688v4.812h-5.688v8.006h-5.6v-20.3h5.6z" class="cls-4" transform="translate(-202.844 -224.623)"/>
                    <path id="패스_2337" d="M343.983 245.445v3.369h8.75v12.731h-23.275v-12.731h8.794v-3.369H323.6V240.9h35v4.55zm-.569-22.837v3.5h7.656v2.45a6.643 6.643 0 0 1-.5 2.625 7.307 7.307 0 0 1-1.465 2.188l6.125 1.137-1.706 4.9-9.275-3.019a34.146 34.146 0 0 1-3.631 1.159q-1.926.5-3.981.875t-4.135.634q-2.078.262-4.09.437l-1.313-4.55q3.413-.262 6.541-.766t5.512-1.094a21.937 21.937 0 0 0 3.806-1.247q1.421-.656 1.422-1.269h-15.05v-4.463h8.356v-3.5zm3.631 30.581h-11.9v3.937h11.9z" class="cls-4" transform="translate(-288.333 -222.608)"/>
                    <path id="패스_2338" d="M455.285 244.31v-17.718h5.515v4.508h6.65v-4.506h5.512v17.716zm12.162-8.881H460.8v4.462h6.65zm-4.463 27.912v-15.662h5.516v3.5h11.681v-3.5h5.512v15.662zm17.194-7.831H468.5v3.413h11.681zm-.087-30.056h5.6v20.212h-5.6V237.7h-5.731v-4.637h5.731z" class="cls-4" transform="translate(-381.567 -224.623)"/>
                </g>
                <path id="패스_2339" d="M211.18 220.979l2.663 2.663v17.106h-17.456l-2.663-2.663 14.606-1.8z" class="cls-4" transform="translate(-193.724 -218.791)"/>
                <path id="패스_2340" d="M277.378 216.335l2.663 2.665-.122 5.24 3.146-.422 2.663 2.663-1.465 3.872-6.6.644-3.226 8.3-2.663-2.663z" class="cls-4" transform="translate(-248.985 -215.503)"/>
                <path id="패스_2341" d="M217.481 300.166l-2.663-2.663 3.135-3.031 17.689-1.431 2.663 2.663-3.942 7.134 5 .7 2.663 2.663-4.5 2.237-10.019-3.675-10.593 6.469-2.663-2.663 17.058-10.239z" class="cls-4" transform="translate(-208.255 -269.809)"/>
                <path id="패스_2342" d="M334.294 213.489l2.663 2.663-.1 1.566 5.095-.729 2.663 2.663-1.966 5.95 3.459-.213 2.663 2.663-3.186 3.623 3.891.1 2.663 2.663-3.055.614-10.98-6.516-11.825 3.379 9.935 7.843 7.4-.065 2.663 2.663-2.02 1.585-18.5 1.609-2.757 9.538-2.663-2.663 5.738-11.379h6.918l-1.046-4.062-14.81 2-2.663-2.663 7.1-4.611-2.283-1.339 11.937-3.97-1.2-2.439-7.159.148-2.663-2.663 10.535-3.411z" class="cls-4" transform="translate(-279.214 -213.488)"/>
                <path id="패스_2343" d="M451.682 220.254l2.659 2.656v4.506l8.57-1.047.934-6.112 2.659 2.653-2.663 15.065-15.012 2.653-2.663-2.658 5-2.11 8.366-.8.161-6.757-8.013.792z" class="cls-4" transform="translate(-372.448 -218.277)"/>
                <path id="패스_2344" d="M522.825 216.379l2.658 2.65-5.6 20.212-2.663-2.652.627-5.564-3.7.253-2.661-2.653 4.426-2.587 3.54-1.609z" class="cls-4" transform="translate(-418.697 -215.534)"/>
                <path id="패스_2345" d="M497.89 295.126l-2.664-2.65-5.455 4.811H480.6l.1-2.161-2.664-2.654-5.516 15.661 2.668 2.656 3.325-5.94-.483-6.114 15.606-.483z" class="cls-4" transform="translate(-391.103 -269.406)"/>
                <g id="그룹_202">
                    <g id="그룹_199" transform="translate(0 .825)">
                        <path id="패스_2346" d="M193.725 234.767v-17.106h17.456v17.106zm6.561 3.939h20.824v2.056a7.112 7.112 0 0 1-.985 3.653 12.158 12.158 0 0 1-2.691 3.127q1.838.394 3.653.81t3.74.854l-1.839 4.9-10.018-3.677a32.582 32.582 0 0 1-6.322 2.427 49.469 49.469 0 0 1-6.935 1.376l-1.443-4.813a46.687 46.687 0 0 0 6.344-1.136 35.15 35.15 0 0 0 4.988-1.639 16.237 16.237 0 0 0 3.326-1.815 3.728 3.728 0 0 0 1.444-1.662h-14.087zm5.385-16.667h-6.431v8.269h6.431zm16.449 1.754h5.688v4.812h-5.688v8.006h-5.6v-20.3h5.6z" class="cls-5" transform="translate(-193.725 -216.31)"/>
                        <path id="패스_2347" d="M216.96 216.748h4.724v7.481h5.687v3.936h-5.687v8.006h-4.724v-19.423m-22.794 1.352h16.58v16.23h-16.58V218.1m11.94 12.646V221.6H198.8V230.745H206.107m-5.383 8.4h19.949v1.618a6.711 6.711 0 0 1-.925 3.432 11.781 11.781 0 0 1-2.6 3.014l-.681.576.872.187c1.259.27 2.486.542 3.647.809l3.252.743-1.509 4.023-9.609-3.528-.18-.066-.171.088a32.306 32.306 0 0 1-6.238 2.393 49.354 49.354 0 0 1-6.506 1.317l-1.185-3.951a46.592 46.592 0 0 0 5.884-1.085 35.8 35.8 0 0 0 5.05-1.661 16.745 16.745 0 0 0 3.416-1.867 4.071 4.071 0 0 0 1.6-1.889l.166-.562h-14.235v-3.586m15.8-22.834v20.3h5.6v-8.006h5.688v-4.812h-5.689v-7.481zm-22.794 1.351v17.106h17.456v-17.106h-17.456zm11.94 12.647h-6.431v-8.269h6.431v8.269zm-5.383 8.4v4.462h14.087a3.728 3.728 0 0 1-1.444 1.662 16.238 16.238 0 0 1-3.326 1.815 35.164 35.164 0 0 1-4.988 1.639 46.688 46.688 0 0 1-6.344 1.136l1.443 4.813a49.469 49.469 0 0 0 6.935-1.376 32.583 32.583 0 0 0 6.322-2.427l10.018 3.677 1.839-4.9q-1.926-.438-3.74-.854t-3.653-.81a12.158 12.158 0 0 0 2.691-3.127 7.112 7.112 0 0 0 .985-3.653v-2.056h-20.824z" transform="translate(-193.724 -216.31)"/>
                    </g>
                    <g id="그룹_200" transform="translate(35.261)">
                        <path id="패스_2348" d="M334.86 236.325v3.369h8.75v12.731l-23.275-.006v-12.731h8.794v-3.369h-14.656v-4.55l35 .009v4.55zm-.563-22.837v3.5h7.656v2.45a6.641 6.641 0 0 1-.5 2.625 7.308 7.308 0 0 1-1.466 2.187l6.125 1.139-1.707 4.9-9.274-3.021a34.151 34.151 0 0 1-3.631 1.158q-1.926.5-3.981.874t-4.135.633q-2.078.262-4.091.437l-1.311-4.55q3.413-.262 6.541-.764t5.513-1.092a21.933 21.933 0 0 0 3.806-1.246q1.421-.656 1.422-1.268h-15.05v-4.462h8.356v-3.5zm3.624 30.582h-11.9V248h11.9z" class="cls-5" transform="translate(-314.473 -213.486)"/>
                        <path id="패스_2349" d="M329 213.924h4.855v3.5h7.656v2.012a6.234 6.234 0 0 1-.469 2.453 6.9 6.9 0 0 1-1.379 2.056l-.56.585.8.148 5.623 1.046-1.4 4.013-8.866-2.888-.148-.048-.145.056a33.877 33.877 0 0 1-3.584 1.143c-1.272.332-2.6.624-3.949.867s-2.736.456-4.112.63c-1.257.159-2.505.294-3.715.4l-1.063-3.688c2.089-.173 4.119-.417 6.041-.726 2.082-.334 3.949-.7 5.549-1.1a22.466 22.466 0 0 0 3.885-1.273c.72-.332 1.677-.866 1.677-1.666v-.438h-15.05v-3.586H329v-3.5m-14.092 18.284l34.124.008v3.674H334.42v4.245h8.75v11.855l-22.4-.006v-11.855h8.794v-4.245h-14.656v-3.674m23.446 16.237v-4.813H325.578v4.813H338.354m-9.792-34.959v3.5h-8.356v4.462h15.05q0 .613-1.422 1.268a21.933 21.933 0 0 1-3.806 1.246q-2.385.59-5.513 1.092t-6.541.764l1.311 4.55q2.011-.174 4.091-.437t4.135-.633q2.056-.371 3.981-.874a34.151 34.151 0 0 0 3.631-1.158l9.274 3.021 1.707-4.9-6.125-1.139a7.308 7.308 0 0 0 1.466-2.187 6.641 6.641 0 0 0 .5-2.625v-2.45h-7.656v-3.5zm-14.088 18.286v4.55h14.656v3.369h-8.794v12.731l23.275.006v-12.731h-8.75v-3.369h14.612v-4.55l-35-.009zm23.446 16.237h-11.9v-3.938h11.9v3.938z" transform="translate(-314.473 -213.486)"/>
                    </g>
                    <g id="그룹_201" transform="translate(73.718 .843)">
                        <path id="패스_2350" d="M446.165 235.224v-17.718h5.512v4.506h6.65v-4.506h5.512v17.718zm12.165-8.878h-6.65v4.463h6.65zm-4.47 27.911v-15.662h5.513v3.5h11.681v-3.5h5.512v15.662zm17.2-7.827h-11.681v3.413h11.681zm-.08-30.056h5.6l-.005 20.212h-5.6v-7.962h-5.731v-4.637h5.731z" class="cls-5" transform="translate(-446.165 -216.374)"/>
                        <path id="패스_2351" d="M471.414 216.812h4.724v19.336h-4.728v-7.962h-5.73v-3.762h5.731v-7.612m-24.806 1.131h4.636v4.506h7.526v-4.506h4.636v16.842h-16.8v-16.843m12.159 13.3v-5.339h-7.526v5.338h7.526m-4.464 7.786h4.636v3.5h12.557v-3.5h4.637v14.786l-21.83-.006v-14.786m17.191 11.248v-4.289h-12.557v4.289h12.557m-.517-33.907v7.613h-5.731v4.637h5.731v7.962h5.6v-20.212zm-24.806 1.132v17.718h17.674v-17.718h-5.512V222h-6.65v-4.506zm12.159 13.3h-6.65v-4.463h6.65v4.462zm-4.465 7.786v15.662l22.706.006v-15.662h-5.512v3.5h-11.681v-3.5zm17.191 11.248H459.37v-3.413h11.681v3.413z" transform="translate(-446.166 -216.374)"/>
                    </g>
                </g>
            </g>
        </g>
        <g id="그룹_419" transform="translate(-2431.669 -3242.462)">
            <g id="그룹_206" transform="translate(2544.05 3394.952)">
                <path id="사각형_20" fill="#d5a040" d="M2558.476 3400.028h103.311a10.377 10.377 0 0 1 10.377 10.377 10.377 10.377 0 0 1-10.377 10.377h-103.311a10.377 10.377 0 0 1-10.376-10.382 10.376 10.376 0 0 1 10.376-10.372z" transform="translate(-2546.329 -3397.394)"/>
                <g id="그룹_204">
                    <path id="사각형_21" fill="#f7f185" d="M2556.714 3397.385h103.31a10.377 10.377 0 0 1 10.378 10.377 10.377 10.377 0 0 1-10.378 10.377h-103.31a10.378 10.378 0 0 1-10.378-10.377 10.378 10.378 0 0 1 10.378-10.377z" transform="translate(-2546.05 -3396.976)"/>
                    <path id="패스_2352" d="M2659.97 3418.469h-.007l-103.312-.074a10.748 10.748 0 0 1 .008-21.5h.008l103.311.074a10.748 10.748 0 0 1-.008 21.5zm-103.311-20.826a10.007 10.007 0 0 0-.007 20.012l103.312.074h.007a10.006 10.006 0 0 0 .008-20.011l-103.311-.075z" class="cls-8" transform="translate(-2545.996 -3396.9)"/>
                </g>
                <g id="그룹_205" transform="translate(13.884 5.48)">
                    <path id="패스_2353" d="M2562.535 3410.816l-.05-5.754 3.75-.033.051 5.754zm2.77-5.005l-1.888.017.036 4.207 1.888-.016zm4.465 8.142l-.048-5.426-1.219.01.044 4.993-.926.008-.081-9.258.926-.008.031 3.457 1.219-.01-.031-3.561.926-.007.085 9.8z" transform="translate(-2562.485 -3403.525)"/>
                    <path id="패스_2354" d="M2574.234 3406.764a2.144 2.144 0 0 1 .174-.881 2.191 2.191 0 0 1 .5-.718 2.426 2.426 0 0 1 .775-.493 2.97 2.97 0 0 1 2.045-.018 2.449 2.449 0 0 1 .8.479 2.177 2.177 0 0 1 .532 2.456 2.23 2.23 0 0 1-.5.725 2.339 2.339 0 0 1-.787.494 2.872 2.872 0 0 1-1.023.185 2.821 2.821 0 0 1-1.021-.167 2.285 2.285 0 0 1-.783-.479 2.25 2.25 0 0 1-.509-.717 2.107 2.107 0 0 1-.203-.866zm.949-.02a1.356 1.356 0 0 0 .466 1.038 1.467 1.467 0 0 0 .494.283 1.76 1.76 0 0 0 .588.094 1.838 1.838 0 0 0 .6-.1 1.46 1.46 0 0 0 .495-.292 1.431 1.431 0 0 0 .337-.455 1.327 1.327 0 0 0 .124-.594 1.377 1.377 0 0 0-.134-.593 1.436 1.436 0 0 0-.344-.455 1.475 1.475 0 0 0-.5-.283 1.856 1.856 0 0 0-.6-.094 1.761 1.761 0 0 0-.585.105 1.463 1.463 0 0 0-.489.292 1.338 1.338 0 0 0-.33.46 1.4 1.4 0 0 0-.119.6zm1.249 7.514l-.022-2.555 4.758-.042-.009-1.032-4.758.041-.007-.773 5.711-.049.022 2.543-4.758.041.009 1.043 5.028-.044.006.773zm4.673-10.2l.949-.008.045 5.239-.949.008z" transform="translate(-2564.341 -3403.509)"/>
                    <path id="패스_2355" d="M2590.551 3403.827l.973-.008.011 1.265 2.333-.021.007.763-5.649.049-.007-.762 2.344-.02zm.491 2.563a2.73 2.73 0 0 1 .9.133 2.107 2.107 0 0 1 .7.387 1.762 1.762 0 0 1 .457.582 1.662 1.662 0 0 1 .164.719 1.688 1.688 0 0 1-.6 1.318 2.261 2.261 0 0 1-.694.4 2.6 2.6 0 0 1-.9.154 2.66 2.66 0 0 1-.9-.138 2.266 2.266 0 0 1-.707-.386 1.691 1.691 0 0 1-.62-1.308 1.643 1.643 0 0 1 .148-.722 1.76 1.76 0 0 1 .444-.594 2.114 2.114 0 0 1 .7-.4 2.747 2.747 0 0 1 .908-.145zm.025 2.93a1.268 1.268 0 0 0 .952-.343 1.061 1.061 0 0 0 .316-.759 1 1 0 0 0-.334-.748 1.307 1.307 0 0 0-.4-.243 1.493 1.493 0 0 0-.552-.088 1.514 1.514 0 0 0-.557.1 1.351 1.351 0 0 0-.408.25.979.979 0 0 0-.25.348 1.034 1.034 0 0 0 .263 1.159 1.311 1.311 0 0 0 .97.324zm-.827 4.578l-.025-2.941.949-.009.018 2.145 5.1-.045.007.8zm5.676-6.226l.033 3.7-.949.008-.065-7.466.95-.008.025 2.953 1.653-.015.008.808z" transform="translate(-2566.549 -3403.473)"/>
                    <path id="패스_2356" d="M2603.286 3409.381l-.044-5.015.95-.009.014 1.746 2.6-.023-.016-1.745.95-.009.044 5.015zm3.53-2.527l-2.6.023.015 1.723 2.6-.022zm-1.5 6.869l-.028-3.176.95-.009.02 2.38 5.1-.045.007.8zm4.865-2.657l-.034-3.878-1.957.017-.008-.8 1.957-.017-.022-2.589.949-.008.063 7.268z" transform="translate(-2568.922 -3403.469)"/>
                    <path id="패스_2357" d="M2617.671 3408.614l-.039-4.441 4.3-.038.039 4.442zm3.328-3.7l-2.414.021.025 2.892 2.414-.021zm3.64 4.891v.434a1.877 1.877 0 0 1-.313 1.046 3.481 3.481 0 0 1-.912.922l1.121.3q.558.149 1.123.307l-.309.835q-.693-.229-1.375-.463t-1.364-.474a10.122 10.122 0 0 1-1.582.635 17.032 17.032 0 0 1-1.924.474l-.121-.4c-.04-.136-.08-.271-.12-.4a12.841 12.841 0 0 0 1.993-.481 9.019 9.019 0 0 0 1.471-.628 3.884 3.884 0 0 0 .927-.675 1.091 1.091 0 0 0 .345-.636l-4.289.037-.007-.774zm.242-3.05l.021 2.356-.949.008-.048-5.437.95-.008.019 2.273 1.653-.014.007.808z" transform="translate(-2571.195 -3403.45)"/>
                    <path id="패스_2358" d="M2630.328 3413.808l-.029-3.27 2.531-.022-.011-1.266-4.208.036-.007-.786 9.376-.082.007.786-4.2.036.011 1.266 2.522-.022.028 3.269zm2.3-9.36l-.009-1.031.974-.009.008 1.031 2.191-.019v.422a1.725 1.725 0 0 1-.807 1.448l1.938.464-.3.869-1.286-.41q-.64-.2-1.287-.4a9.584 9.584 0 0 1-1.835.578q-1.054.233-2.329.385l-.23-.808q1.113-.126 2.019-.323a13.166 13.166 0 0 0 1.561-.424 4.534 4.534 0 0 0 1.032-.483.92.92 0 0 0 .435-.525l-4.465.038-.008-.785zm2.755 6.823l-4.125.035.014 1.7 4.126-.036z" transform="translate(-2572.928 -3403.408)"/>
                    <path id="패스_2359" d="M2641.052 3408.514l-.04-4.535.95-.008.013 1.523 2.6-.022-.013-1.524.95-.009.039 4.535zm3.531-2.281l-2.6.023.012 1.476 2.6-.022zm-1.423 7.431l-.035-4.114.936-.008.011 1.255 3.891-.035-.011-1.253.938-.008.035 4.113zm4.811-2.128l-3.892.034.012 1.289 3.891-.035zm-2-4.988l-.008-.8 1.946-.017-.02-2.262.949-.008.048 5.414-.95.009-.02-2.356z" transform="translate(-2574.888 -3403.417)"/>
                    <path id="패스_2360" d="M2654.729 3408.863l-.008-.833 3.8-.033-.019-2.156.964-.009.018 2.156 4.594-.04.007.832zm7.666-5.154l.005.492a14.991 14.991 0 0 1-.068 1.553 9.038 9.038 0 0 1-.257 1.462c-.156-.014-.311-.03-.463-.049s-.307-.038-.464-.06a8.231 8.231 0 0 0 .222-1.286 12.333 12.333 0 0 0 .059-1.284l-5.157.045-.008-.82zm-.164 7.994a1.76 1.76 0 0 1-.18.8 1.946 1.946 0 0 1-.54.661 2.732 2.732 0 0 1-.882.453 3.976 3.976 0 0 1-1.193.175 3.9 3.9 0 0 1-1.187-.154 2.731 2.731 0 0 1-.876-.438 1.857 1.857 0 0 1-.544-.651 1.792 1.792 0 0 1-.19-.795 1.838 1.838 0 0 1 .708-1.484 2.761 2.761 0 0 1 .869-.452 3.9 3.9 0 0 1 1.182-.174 4.02 4.02 0 0 1 1.2.153 2.748 2.748 0 0 1 .89.438 1.921 1.921 0 0 1 .551.658 1.827 1.827 0 0 1 .2.812zm-.949.009a1.113 1.113 0 0 0-.5-.921 2.265 2.265 0 0 0-1.379-.352 2.164 2.164 0 0 0-1.345.375 1.122 1.122 0 0 0-.46.93 1.086 1.086 0 0 0 .477.89 2.193 2.193 0 0 0 1.351.346 2.288 2.288 0 0 0 1.374-.371 1.075 1.075 0 0 0 .478-.9z" transform="translate(-2577.053 -3403.456)"/>
                    <path id="패스_2361" d="M2670.614 3413.258l-.028-3.211-4.2.036-.008-.8 9.375-.082.008.8-4.208.037.029 3.21zm-2.554-5.322l-.037-4.137.964-.008.012 1.324 4.066-.035-.012-1.324.964-.009.036 4.137zm5.009-2.071l-4.067.034.012 1.242 4.066-.035z" transform="translate(-2578.895 -3403.461)"/>
                </g>
            </g>
            <g id="그룹_213" transform="translate(2533.669 3386.804)">
                <g id="타원_13">
                    <circle id="타원_1" cx="9.417" cy="9.417" r="9.417" class="cls-3"/>
                    <path id="패스_1" d="M2543.086 3406.058a9.417 9.417 0 1 1 9.417-9.418 9.428 9.428 0 0 1-9.417 9.418zm0-18.094a8.676 8.676 0 1 0 8.675 8.676 8.686 8.686 0 0 0-8.675-8.675z" class="cls-8" transform="translate(-2533.669 -3387.223)"/>
                </g>
                <path id="패스_2398" fill="#d64f41" d="M2546.982 3397.564a3.256 3.256 0 0 1-.584 1.876 2.94 2.94 0 0 1-4.74.1 3.27 3.27 0 0 1-.319-3.654 2.911 2.911 0 0 1 3.1-1.442 3.224 3.224 0 0 1 2.544 3.115c.014 1.023 1.751.9 1.739-.055a4.634 4.634 0 0 0-3-4.32 4.955 4.955 0 0 0-5.464 1.465 4.617 4.617 0 0 0-.416 5.29 4.816 4.816 0 0 0 8.885-2.435c.008-1.018-1.727-.895-1.745.06z" transform="translate(-2534.542 -3388.119)"/>
            </g>
            <g id="그룹_214" transform="translate(2657.6 3384.57)">
                <g id="타원_14">
                    <circle id="타원_2" cx="9.417" cy="9.417" r="9.417" class="cls-3"/>
                    <path id="패스_2" d="M2690.262 3403.405a9.418 9.418 0 1 1 9.417-9.418 9.428 9.428 0 0 1-9.417 9.418zm0-18.093a8.676 8.676 0 1 0 8.676 8.676 8.685 8.685 0 0 0-8.676-8.676z" class="cls-8" transform="translate(-2680.844 -3384.57)"/>
                </g>
                <path id="패스_2399" d="M2695.152 3397.866l-2.9-2.9 2.036-2.036.833-.834c.691-.69-.408-1.483-1.021-.871l-2.795 2.8-2.007-2.007-.834-.833c-.576-.574-1.74.311-1.089.964l2.9 2.9-2.036 2.036-.83.829c-.691.691.407 1.484 1.021.871l2.794-2.795 2.008 2.006.834.834c.572.57 1.734-.313 1.086-.964z" transform="translate(-2681.845 -3385.584)"/>
            </g>
        </g>
    </g>
</svg>
